/* XPM */
static char *result[] = {
/* columns rows colors chars-per-pixel */
"100 100 14 1 ",
"  c #1E1919",
". c #290202",
"X c #450404",
"o c #6F0404",
"O c #7F0303",
"+ c black",
"@ c #AE0505",
"# c #C30E0E",
"$ c #180101",
"% c #FB2727",
"& c #F74242",
"* c #F24040",
"= c #610202",
"- c #F01313",
/* pixels */
"                                             ..........                                             ",
"                                         ....XXXXXXXX==X...                                         ",
"                                        ....XXXXX====oo=XXXX                                        ",
"                                      ....XXXXXX=oooooooooo=XX                                      ",
"                                   ....XXXXX=ooooooooOOOOOooooXXX                                   ",
"                                  $..XXXXX===ooooOOOO@@@@OOOoo===X                                  ",
"                                  $.XXXXX=ooooooOOOO@@@@@OOOOooooX                                  ",
"                                $$.XXXXX=oooooOOOO@@@@@@@@@OOOOOooXX                                ",
"                               +$.XXXXX=oooOOOO@@@@@@####@@@@OOOOoo=X                               ",
"                              $$.XXXXX=oooOOOO@@@@#########@@@OOOOoo=X                              ",
"                              +.XXXXX=ooooOOOO@@@@##########@@OOOOoooXX                             ",
"                            $+$.XXXX=ooooOO@@@@@@#####%%%####@@@OOOOooXX                            ",
"                           +$$.XXXX=oooOOO@@@@@######%%%%%####@@@OOOOoo=X                           ",
"                           $$$.XXXXooooOO@@@@#######-%**%%---##@@@OOOooo=.                          ",
"                          +$$..XXXXoooOO@@@@#######%%%&&&%%%%###@@OOOOoooX                          ",
"                          +$..XXXXooooO@@@@#####-%%%%&&&&&%%%%###@@@OOOOooX.                        ",
"                        $$$.XXXX=ooooOO@@@#####-%%%*&&&&&&&%%%####@@@OOOOoo=.                       ",
"                        $+$.XXXX=oooOOO@@@####-%%%*&&&&&&&*%%-####@@@OOOOoo=X                       ",
"                        $+$.XXXX=ooOOO@@@@####%%%%&&&&&&&&%%%####@@@@OOOOoooo.                      ",
"                       +$$.XXXXooooO@@@@@#####%%%%&&&&&&&%%-##@@@@@@OOOOooooo.                      ",
"                       +$$.XXXXoooOO@@@@@######%%%%*&&&*%%-##@@@@OOOOoooooooo=X                     ",
"                       +$..XXX=oooOO@@@@@######-%%%%*&*%%-##@@@@@OOOOooo====ooX.                    ",
"                      +$..XXXXooooO@@@@@@@@@@###-%%%%&%%%##@@@@@OOOOooo=XXX=oo=X.                   ",
"                      +$..XXXXooOOO@@@@@@@@@@@####%%%%%%%##@@@OOOOooooXX$$$$..XX$$                  ",
"                     $$..XXX==ooOOOOOOOOOOO@@@@###-%%%%-##@@@@OOOoooo=X=OOoX$$.X==X                 ",
"                    ++$.XXXX=oooOOOoooooooO@@@@@###-%%%###@@@@OOOooo=XO@@@O=XXXXoo=X                ",
"                    ++$.XXXX=ooOOOOXXXXXXXOOO@@@@#########@@@OOOOoo=X.**@ooo==ooooo=$               ",
"                    ++$.XXX=oooO=XX#@@@###XoOO@@@@#######@@@@OOOooXXX*#@@oX..===..==$               ",
"                   $$$.XXXX=ooo=OO@-#ooO@#XoOO@@@@@#####@@@@OOOOooXXX##@@X.$$XXX$$XX$               ",
"                   +$$.XXXX=oo==O@#-#Oo=O@XoOO@@@@@@###@@@@OOOOoo=XXo@@@@...........$               ",
"                   +$$.XXXX===XO@@@X#%#@@@XoOOO@@@@@@@@@@@@OOOoooX.O@@@O.$XXX$$.XX.$                ",
"                   +$$.XXXX=XXOOOOX@##@@@@XoOOOOO@@@@@@@@@OOOOoooX.O@@oX.X========XX$               ",
"                  $$$.XXXXXXX=OOo==@@@@@OOXoOOOOO@@@@@@@@OOOOoo==.O@@OX.X===oooooo==X.              ",
"                  +$..XXXXX.=oOo==O@@@@OOOXoOOOOO@@@@@@@@OOOOoo=X.@@@..=O==oooooooo==.              ",
"                  +$..XXXXX.=oO.=OOOOOOOOOXoOOOOOO@@@@@OOOOOOoo=X.@@@.X#*=oooooooooo=.              ",
"                  +$..XXXXX.==XoOOOOOOOo==oOOOOOOOOOOOOOOOOOOo=XX@@OXX*#OoX......=oo=.              ",
"                  +$..XXXXX.==.ooooooooo=XooOOOOOOOOOOOOOOOOOo=XX@OoXX#@oX.$$$$$$X==X               ",
"                  +$..XXXX..==Xooooooooo=XoooOOOOOOOOOOOOOOOOo=XX@=XXX===$$.....$$XX$               ",
"                  +$..XXXX.X.XoooooooooX=oooooOOOOOOOOOOOOOooo=X..XXX=o=$..Xooo=..$$                ",
"                $$$...XXXX.X.XooooooooX=oooooooOOOOOOOOOOOoooo====XX=oXXX==ooooo=XXX$               ",
"                ++$...XXXX.X.Xoooooo===oooooooooOOOOOOOOOOoooooooo====XX=oooooooo==X$               ",
"                ++$...XXXX.XXXoooooo=XooooooooooooOOOOOoooooooooooooo.=oooooooooooo=$               ",
"                ++$...XXXX..=ooooooX=oooooooooooooooooooooooooooooooooooooooooooooo=$               ",
"                ++$...XXXXX.XXXXXXX==oooooooooooooooooooooooooooooooO*@ooooooXX=ooo=$               ",
"                ++$...XXXXX.XXXXXXX=oooooooooooooooooooooooooooo====O*#@oooo=====oo=$               ",
"                ++$...XXXXXXXXX====oooooooooooooooooooooooooooo=XXX=oo**ooo=Xoo=Xoo=$               ",
"                ++$...XXXXXXXX=oooooooooooooooooooooooooooooooooooo=Xooooo==oooooX==$               ",
"                ++$...XXXXXXX=oooooooooooooooooooooooooooooooooooooo==ooo==ooooooX==$               ",
"                ++$...XXXXXX==ooooooooooooooooooooooooooooooooooooooo=====oooooooX==$               ",
"                ++$...XXXXXX==ooooooooooooooooooooooooooooooooooooooooXXXooooooooX==$               ",
"                ++$...XXXXX=oooooooooooooooooooooooooooooooooooooooooooooooooooooo=X$               ",
"                ++$...XXXXX=oooooooooooooooooooooooooooooooooooooooooooooooooooooo=X$               ",
"                ++$...XXXXX=oooooooooooooooooooooooooooooo========oooooooooooooooo==$               ",
"                ++$...XXXXX=oooooooooooooo===oooooooooooooXXXXXXXXoooooooooooooooo==$               ",
"                ++$...XXXXX=ooooooooooooo=XX=ooooooooooooXX=O@----OXXooooooooooooo==$               ",
"                ++$...XXXXXX=ooooooooooo=XXXXoooooo@@ooo=XXX=o@@#*#@O=oooooooooooo==$               ",
"                ++$...XXXXXXX=ooooooooo=XXXX=ooooo@##ooo=XXXX=OOO*-#@ooooooooooooo=X$               ",
"                ++$...XXXXXXXX=ooooooo=XXX.=oooooo*#=ooo=XX=O@-%*..O@@o=ooooooooo=X$                ",
"                ++$$...XXXXXXX=oooooo=XXX..=oooooo-@=ooo=XX=O@@#--@O=@@OXoooooooo=X$                ",
"                ++$$...XXXXXXXX=oooo=XXX..=oooooO#@O=ooo=XX=oO@###@@OO@@O=ooooooo=X$                ",
"                $$$$...XXXXXXXX=====XXX...oooooo@-X==ooo=XX=oo@@@@@@@=O@@X=oooooo=X$                ",
"                  +$$$.XXXXXXXXXXXXXXX....ooooooO@===ooo=X.XXooO@@@@@@=o@X==oooo=.                  ",
"                  +$$$.XXXXXXXXXX.......X=ooooo@O==ooooo=X.XXXooO@@@@@@O=@o==ooo=.                  ",
"                  +$$$.XXXXXXXXXXXX.....Xoooooo@OX=ooooo=XXXXX==oO@@@@@O.OoX=ooo=.                  ",
"                  +$$$..XXXXXXX.XXX.....=oooooo@OX=ooooooXXX.XX=oo@@@@@O.oXX=ooo=.                  ",
"                  +$$$..XXXXXX.XXXXXX..=ooooooo@@==oooooo=XXX.XXXoooooo=X.XX=ooo=.                  ",
"                  +$$$..XXXXX.XX===XX..=oooooo@O==ooooooooXXXX.XXXX=ooo=X.XX=oo==.                  ",
"                  $$$$...XXX..XX====X.Xooooooo@o==oooooooo=XXXXXXXXX====X.XX=o==X                   ",
"                   +$$$...XX..X=====XXoooooooO@O==oooooooo==XXXX.XXXXXXXX.XX=o==$                   ",
"                   +$$$...XX..X=======ooooooO@X===oooooooooo=XXXX...XXXXXXXX=o==$                   ",
"                   +$$$...XX..X======oooooooO@@@OXooooooooooo=XXXXXX......XX====$                   ",
"                   $$$$...XX..X=====oooooooO@@#@@O=oooooooooo==XXXXX......XX===X                    ",
"         $+         ++$$...X..XX====ooooooo@@@-#@@X=oooooooooo==XXXXXXXXXXXX==X$                    ",
"        +           ++$$...XXX.XXXXoooooooo@#----@X=oooooooooooo=XXXXXXXXX====X$                    ",
"       $            ++$$...XXXX.XXXooooooo@@#----@X=ooooooooooooo=XXXXXXXX====X$                    ",
"       $             $$$...XXXX.XXX=oooooO@##---#@X=ooooooooooooo==XXXXXXXX==XX                     ",
"     $+               +$$$..XXXX..XX=ooooO@----#@@X=oooooooooooooo==XXXXXXXX=$                      ",
"    +                 +$$$..XXXXXX.X=ooooO@---@@OX=ooooooooooooooo==XXXXXXXXX$                      ",
"    +                  +$$$..XXXXXX.X=ooO@@###@Oo=oooooooooooooooo==XXXXXXXX.                       ",
"    $                  +$$$...XXXXX.XX==O@@@@@@o==oooooooooooooooo==XXXXXXX.$                       ",
"   +   +++++++++       +$$$...XXXXXXX.....XXXXX==ooooooooooooooooo==XXXXXX..$                       ",
"   +       +            $+$$...XXXXXXXXXXXXXX==oooooooooooooooooo=XXXXXXX..$                        ",
"    $     $+            $+$$...XXXXXXXXXXXXX=ooooooooooooooooooo=XXXXXXX..$$                        ",
"    +    $++            $$$$...XXXXXXXXXXXX==oooooooooooooooooo==XXXXXXX..$                         ",
"     $+++  +              +$$$..XXXXXXXXXXX==oooooooooooooooo===XXXXXX...$                          ",
"           +       +      +$$$..XXXXXXXXXXXX==oooooooooooooo=XXXXXXXX....$                          ",
"           +       +       $$$...XXXXXXXXXXXX=ooooooooooooo=XXXXXXXX.....                           ",
"     $+    +       +       +$$$....XXXXXXXXXXX===oooooo====XXXXXXX......$                           ",
"     $+  $+ +  +  +         $+$$....XXXXXXXXXXXXX======XXXXXXXXX......$                             ",
"       ++   +  +  +           +$$$.....XXXXXXXXXXXXXXXXXXXXXX........$                              ",
"       $$      $              $$$$......XXXXXXXXXXXXXXXXXXXX.........                               ",
"              + $              +$$$........XXXXXXXXXXXXXXX........$$$                               ",
"                                $+$$$$.........XXXXXXX...........$+$                                ",
"                                  +$$$$$......................$$$+                                  ",
"                                  $$$$$$$.....................$$$$                                  ",
"                                   +++$$$$$$$..............$$$+++                                   ",
"                                      ++$$$$$$$$$$$$$$$$$$$$++                                      ",
"                                        $+++$$$$$$$$$$$$++                                          ",
"                                         $$$$$$$$$$$$$$$$$                                          ",
"                                             ++++++++++                                             "
};
