/* XPM */
static char *result[] = {
/* columns rows colors chars-per-pixel */
"100 100 7 1 ",
"  c #271A15",
". c #391F21",
"X c #5D2C28",
"o c #8A4836",
"O c #BF6F4A",
"+ c #E69C69",
"@ c None",
/* pixels */
"ooooooooooooooooooooooooooooooooo    ..oooooooooooooooooooooooooooooooooooooooOo ooooooooooooooooooo",
"OOOOOOOOOOOOOOOOOOOOOOOOOOOOOOO++.   .XOOOOOOOOOOOOOOOOOOOOOOOOOOOOOOOOOOOOOOO+O OOOOOOOOOOOOOOOOOOO",
"oooooooooooooooooooooooooooooooOO+o. .XoooooooooooooooooooooooooooooooooooooooOO Xoooooooooooooooooo",
"oooooooooooooooooooooooooooooooOO+Oo .XoooooooooooooooooooooooooooooooooooooooOo XXooooooooooooooooo",
"oooooooooooooooooooooooooooooooooO++ .XoooooooooooooooooooooooooooooooooooooooOo XXooooooooooooooooo",
"ooooooooooooooooooooooooooooooooooOO .XoooooooooooooooooooooooooooooooooooooooOo XXooooooooooooooooo",
"ooooooooooooooooooooooooooooooooooOO .XoooooooooooooooooooooooooooooooooooooooOo XXooooooooooooooooo",
"ooooooooooooooooooooooooooooooooooOO .XoooooooooooooooooooooooooooooooooooooooOo XXooooooooooooooooo",
"ooooooooooooooooooooooooooooooooooOO .XooooooooooooooooXXXXoooooooooooooooooooOo XXooooooooooooooooo",
"ooooooooooooooooooooooooooooooooooOO .XooooooooooooooooXXXXoooooooooooooooooooOo XXooooooooooooooooo",
"ooooooooooooooooooooXXooooooooooooOO .XoooooooooooooXXXoooooooooooooooooooooooOo XXooooooooooooooooo",
"ooooooooooooooooooooXXooooooooooooOO .XoooooooooooooooooooooooooooooooooooooooOo XXooooooooooooooooo",
"ooooooooooooooooooooXXooooooooooooOO .XoooooXXXXXXXXooooooooooooooooooooooooooOo XXooooooooooooooooo",
"ooooooooooooooooooooooXXXXooooooooOO ..XXXXXooooooooXoooooooooooooooooooooooooOo XXooooooooooooooooo",
"ooooooooooooooooooooooXXXXXoooooooOO ..XXXXoooooooooXoooooooooooooooooooooooooOo XXooooooooooooooooo",
"oooooooooXXooooooooXXX.....XoooXXoOO ..ooooooooooooooXXoooooooooooooooooooooooOo XXooooooXXooooooooo",
"oooooooooooXXXoooXX...   ..XooXoooOO .XooooooooooooooXXoooooooooooooooooooooooOo XXooooooXXooooooooo",
"oooooooooooXXXoooXX...   ..XooXooooO .XooooooooooooooXooooooooooooooooooooooooOo XXooooooXoooooooooo",
"ooooooooooooooXXX...       .XXoooX.. .XoooooooooooooooooooooooooooooooooooooooOo ..XXXooXooooooooooo",
"oooooooooooooX......        .XXXX..  .XooooooooooooooooooooooooooooooooooooXXXoX  ....Xooooooooooooo",
"ooooooooooooXX......        ..XXX.   .XooooooooooooooooooooooooooooooooooooXXX..   ...XXoooooooooooo",
"XXXXXXXXXXXXX.........        ...    ..XXXXXXXXXXXXXXXXXXXXXXXXXXXXXXXXXXXX...        .XXXXXXXXXXXXX",
".......................                ....................................            .............",
"         ..............                                                                             ",
"          .OOOOOoooXXX......XoOOOOOOoOOOOOOOOOOOOOOOO+O.    .OOOOOOOOOOOOOOOOOOOOOOOOOOOOOOOOOOOOOOO",
"          .oOOOOoooXXX......XoOOOOOOooOOOOOOOOOOOOOOO+OOX   .oOOOOOOOOOOOOOOOOOOOOOOOOOOOOOOOOOOOOOO",
"........   XooooOOOoXX...XXXooooooooXooooooooooooooooOO+o..  Xoooooooooooooooooooooooooooooooooooooo",
"XXXXXX...  XoooooooXXXXXXooooooooooXooooooooooooooooooOO+++o Xoooooooooooooooooooooooooooooooooooooo",
"XXXXXXX..  XoooooooXXXXXXoooooooooXXoooooooooooooooooooO+++o Xoooooooooooooooooooooooooooooooooooooo",
"XXXXXXXX.  XooooooooXXoooXXoooooooXXooooooooooooooooooooOOOo Xoooooooooooooooooooooooooooooooooooooo",
"XXXXXXXX.  XoooooooXoooooooooooooXooooooooooooooooooooooooOo Xoooooooooooooooooooooooooooooooooooooo",
"XXXXXXXX.  XoooooooXoooooooooooooXooooooooooooooooooooooooOo Xoooooooooooooooooooooooooooooooooooooo",
"XXXXXXXX.  XoooooooooooooooooooooXooooooooooooooooooooooooOo XoooooXXXoooooooooooooooooooooooooooooo",
"XXXXXXXX.  XooooooooooooooooooooXooXooooooooooooooooooooooOo XooooooooooooooooooXXoooXoooooooooooooo",
"XXXXXXXX.  XoooooooooooooooooooXXoXXooooooooooooooooooooooOo XooooooooXXooooooooXXXoXXoooooooooooooo",
"XXXXXXXX.  XoooooooooooooooooooXXoXXooooooooooooooooooooooOo XooooooooooXoooooXXoooXoooooooooooooooo",
"XXXXXXXX.  XooooooooooooooooooooooooooooooooooooooooooooooOo XooooooooooXooooooooooooooooooooooooooo",
"XXXXXXXX.  XooooooooooooooooooXooooooooooooooooooooooXXoooOo XooooooooooXooooXooooooXXoooooooooooooo",
"XXXXXXXX.  XoooooooooooooooooooooooooooooooooooooooooooXooOo XoooooooooooXXooXooooooooXooooooooooooo",
"XXXXXXXX.  XoooooooooooooooooooooooooooooooooooooooooooXooOo XooooooooooooXooXooooooooXooooooooooooo",
"XXXXXXXX.  XooooooooooooooooooooooooooooooooooooooooooooXXoX XoooooooooooooXXooooooooooooooooooooooo",
"XXXXXXXX.  XooooooooooooooooooooooooooooooooooooooooooooooOo XoooooooooooooXXooooooooooooooooooooooo",
"XXXXXXXX.  XooooooooooooooooooooooooooooooooooooooooooooooOo XoooooooooooooXoooooooooooooooooooooooo",
"XXXXXXXX.  XooooooooooooooooooooooooooooooooooooooooooooooOo XoooooooooooXXooooooooooooooooooooooooo",
"XXXXXXXX.  .XXooooooooooooooooooooooooooooooooooooooooooooOo XXXoooooooooXXooooooooooooooooooooooooo",
"XXXXXXXX.  ..XooooooooooooooooooooooooooooooooooooooooooooOo XXXooooooooooXooooooooooooooooooooooooo",
"XXXXXXXX.   ..XXXoooooooooooooooooooooooooX..oooooooooooooOo ...XXooooooXooooooooooooooooooooooooooo",
"XXXXXXXXX..   ...XXXXXXXXXXXXXXXXXXXXXXXXX.  XXXXXXXXXXXXooX    .XXXXXXX.XXXXXXXXXXXXXXXXXXXXXXXXXXX",
"XXXXXXXXX..   ...XXXXXXXXXXXXXXXXXXXXXXXX.   ..XXXXXXXXXXXX.    ..XXXXXX.XXXXXXXXXXXXXXXXXXXXXXXXXXX",
"XXXXXXXXXXX..                                                                                       ",
"ooooooooooooooooooooXXoooooooooooOo  XooooooooooooooooooooooooooooooooooooO      ooooooooooooooooooo",
"OOOOOOOOOOOOOOOOOOOOooOOOOOOOOOOO+O. oOOOOOOOOOOOOOOOOOOOOOOOOOOOOOOOOOOO++..    OOOOOOOOOOOOOOOOOOO",
"oooooooooooooooooooXoooooooooooooO++ XXooooooooooooooooooooooooooooooooooOO+O.   Xoooooooooooooooooo",
"oooooooooooooooooooXoooooooooooooOO+ .XoooooooooooooooooooooooooooooooooooO+Oo.  XXooooooooooooooooo",
"oooooooooooooooooXXoooooooooooooooOO .XooooooooooooooooooooooooooooooooooooOO+X. XXooooooooooooooooo",
"ooooooooooooooXXXoooooooooooooooooOO .XooooooooooooooooooooooooooooooooooooOO+X. XXooooooooooooooooo",
"ooooooooooooooXXXoooooooooooooooooOO .XooooooooooooooooooooooooooooooooooooOO+oX XXooooooooooooooooo",
"oooooooooooooXooooooooooooooooooooOO .XooooooooooooooooooooooooooooooooooooooO+O XXooooooooooooooXXX",
"ooooooooooXXooooooooooooooooooooooOO .XooooooooooXooooooooooooooooooooooooooooOO XXooooooooooXXXX...",
"oooooooooXXXooooooooooooooooooooooOO .XoooooooooXXooooooooooooooooooooooooooooOo XXoooooooooXXXXX...",
"ooooooooXooooXooooooooooooooooooooOO .XoooooooooXXooooooooooooooooooooooooooooOo XXooooooXXX........",
"oooooooooooooXooooooooooooooooooooOO .XoooooooooooooooooooooooooooooooooooooooOo XXoooooooXXXXX.....",
"ooooooXXoooooXooooooooooooooooooooOO .XooooooooXooooooooooooooooooooooooooooooOo XXooooooooXXXX.....",
"oooXXXooooooooXXooooooooooooooooooOO .XooooooooXoooooooooooXXoooooooooooooooooOo XXooooooooooooXXXXX",
"oooXXXooooooooXoooooooooooooooooooOO .XooooooooXooooooooooooXoooooooooooooooooOo XXoooooooooooooXXXX",
"ooXoooooooooooooooooooooooooooooooOO .XooooooXXooooooooooooooXooooooooooooooooOo XXooooooooooooooooo",
"XoooooooooooooooooooooooooooooooooOO .XooooooooooooooooooooooooXXoooooooooooooOo XXooooooooooooooooo",
"XooooooooooooooooooooooooooooooooooO .XooooooooooooooooooooooooXXoooooooooooooOo XXooooooooooooooooo",
"oooooooooooooooooooooooooooooooooX.. .XoooooooooooooooooooooooooooXoooooooooooOo XXooooooooooooooooo",
"ooooooooooooooooooooooooooooooooX..  ..XoooooooooooooooooooooooooooooooooooooooX XXooooooooooooooooo",
"oooooooooooooooooooooooooooooooXX.    .XXooooooooooooooooooooooooooooooooooooo.. XXooooooooooooooooo",
"XXXXXXXXXXXXXXXXXXXXXXXXXXXXXXXXX.     ..XXXXXXXXXXXXXXXXXXXXXXXXXXXXXXXXXXXXX.. ..XXXXXXXXXXXXXXXXX",
".................................       .......................................   ..................",
"                                                                                                    ",
"            ..OOOOOOoXOOOOOOOOOOOOOOOOOOOOOOOOOOOOOOOOOO++.   ..OOOOOOOOOOOOOOOOOOOOOOOOOOOOOOOOOOOO",
"            ..oOOOOOoooOOOOOOOOOOOOOOOOOOOOOOOOOOOOOOOOOOOOo  XXOOOOOOOOOOOOOOOOOOOOOOOOOOOOOOOOOOOO",
"........    ..XXooooooXoooooooooooooooooooooooooooooooooOO+O .Xooooooooooooooooooooooooooooooooooooo",
"OOOOOoXX.  ..XooooooooXoooooooooooooooooooooooooooooooooooOo Xoooooooooooooooooooooooooooooooooooooo",
"OOOOOooX.  .XXooooooooXoooooooooooooooooooooooooooooooooooOo Xoooooooooooooooooooooooooooooooooooooo",
"oooooOoo.  XoooooooooooXXoooooooooooooooooooooooooooooooooOo Xoooooooooooooooooooooooooooooooooooooo",
"ooooooOO.  XoooooooooooXXoooooooooooooooooooooooooooooooooOo XooooooooooooooooooooooooooooooooXXXooo",
"ooooooOO.  XooooooooooooXoooooooooooooooooooooooooooooooooOo XooooooooooooooooooooooooooooooooXXXooo",
"ooooooOO.  XooooooooooXoooooooooooooooooooooXoooooooooooooOo XoooooooooooooooooooooooooooooooooooXoo",
"oooooooooX XooooooooooooXoooooooooooooooooooooooooooooooooOo XoooooooooooooooooooooooooooooooooooooX",
"ooooooooOo XoooooooooooXXoooooooooooooooooXXooooooooooooooOo XoooooooooooooooooooooooooooooooooooooX",
"ooooooooOo XooooooooooXoooooooooooooooooooXXooooooooooooooOo XoooooooXoooooooooooooooooooooooooooooo",
"ooooooooOo XoooooooooXXoooooooooooooooooooooooooooooooooooOo XoooooooXoooooooooooooooooooooooooooooo",
"ooooooooOo XoooooXXoXXXooXXooooooooooooooXooooooooooooooooOo XoooooooXoooooooooooooooooooooooooooooo",
"ooooooooOo XoooooooX...XXoooooooooooooooooooooooooooooooooOo XoooooXXoXXoooooooooooooooooooooooooooo",
"ooooooooOo XoooooooXX...XoooooooooooooooooooooooooooooooooOo XoooooXXooXoooooooooooooooooooooooooooo",
"ooooooooOo XooooooooXX...XXoooooooooooooooooooooooooooooooOo XoooooXXoooXooooooooooooooooooooooooooo",
"ooooooooOo XoooooooXooX..XXoooooooooooooooooooooooooooooooOo .XXXXXooooooooooooooooooooooooooooooooo",
"ooooooooOo XoooooooXooXX.XooooooooooooooooooooooooooooooooOo ..XXXXooooooooooooooooooooooooooooooooo",
"ooooooooOo XoooooooooooXXooXooooooooooooooooooooooooooooooOo  ..XXoooooooooooooooooooooooooooooooooo",
"ooooooooOo XooooooooooXoooooooooooooooooooooooooooooooooooOo  ..XXoooooooooooooooooooooooooooooooooo",
"ooooooooOo XXoooooooooXoooooooooooooooooooooooooooooooooooOo   .XXoooooooooooooooooooooooooooooooooo",
"XXXXXXXXX. .XXXXXXXX..XXXXXXXXXXXXXXXXXXXXXXXXXXXXXXXXXXXXX.    ..XXXXXXXXXXXXXXXXXXXXXXXXXXXXXXXXXX",
"..........  ................................................     ...................................",
"                                                                                                    ",
"@@@@@@@@@@@@@@@@@@@@@@@@@@@@@@@@@@@@@@@@@@@@@@@@@@@@@@@@@@@@@@@@@@@@@@@@@@@@@@@@@@@@@@@@@@@@@@@@@@@@"
};
